<svg width="460" height="96" viewBox="0 0 460 96" fill="none" xmlns="http://www.w3.org/2000/svg">
<path d="M33.3785 10C37.0697 10 40.6554 10.632 44.1356 11.896C47.7213 13.1601 51.1488 15.0035 54.4181 17.4262C54.9454 17.9529 55.5254 18.4796 56.1582 19.0062C56.6855 18.4796 57.2655 17.9529 57.8983 17.4262C61.1676 15.0035 64.5424 13.1601 68.0226 11.896C71.6083 10.632 75.194 10 78.7797 10C82.4708 10 86.0565 10.632 89.5367 11.896C93.1224 13.1601 96.4972 15.0561 99.661 17.5842C102.93 20.0069 105.778 23.2723 108.203 27.3805C110.734 31.4886 112 36.3867 112 42.0748V75.7297C111.367 82.0499 107.887 85.4733 101.559 86C98.6064 86 96.0226 85.052 93.8079 83.1559C91.6987 81.1545 90.6441 78.6791 90.6441 75.7297V43.3389C90.6441 40.8108 90.1695 38.7041 89.2203 37.0187C88.2712 35.228 87.2166 33.8586 86.0565 32.9106C84.8964 31.8572 83.6836 31.1199 82.4181 30.6985C81.1525 30.1719 79.887 29.9085 78.6215 29.9085C77.3559 29.9085 76.0904 30.1719 74.8249 30.6985C73.6648 31.1199 72.5047 31.8572 71.3446 32.9106C70.1846 33.8586 69.1299 35.228 68.1808 37.0187C67.2316 38.7041 66.7043 40.8108 66.5989 43.3389V75.7297C65.9661 82.0499 62.4859 85.4733 56.1582 86C53.2053 86 50.6215 85.052 48.4068 83.1559C46.2975 81.1545 45.2429 78.6791 45.2429 75.7297V43.3389C45.2429 40.8108 44.7684 38.7041 43.8192 37.0187C42.8701 35.228 41.8154 33.8586 40.6554 32.9106C39.4953 31.8572 38.2825 31.1199 37.0169 30.6985C35.7514 30.1719 34.4859 29.9085 33.2203 29.9085C31.9548 29.9085 30.6893 30.1719 29.4237 30.6985C28.2637 31.1199 27.1036 31.8572 25.9435 32.9106C24.7834 33.8586 23.7288 35.228 22.7797 37.0187C21.8305 38.7041 21.3032 40.8108 21.1977 43.3389V75.7297C20.6704 82.0499 17.2429 85.4733 10.9153 86C7.96233 86 5.37853 85.052 3.16384 83.1559C1.05461 81.1545 0 78.6791 0 75.7297V42.0748C0.210923 36.3867 1.52919 31.4886 3.9548 27.3805C6.38041 23.2723 9.22787 20.0069 12.4972 17.5842C15.7665 15.0561 19.1412 13.1601 22.6215 11.896C26.2072 10.632 29.7928 10 33.3785 10Z" fill="#0035BC"/>
<path d="M141.32 45C140.707 45 140.173 44.7733 139.72 44.32C139.267 43.8667 139.04 43.3333 139.04 42.72V18.08C139.04 17.4667 139.267 16.9333 139.72 16.48C140.173 16.0267 140.707 15.8 141.32 15.8H143.6C144.293 15.8 144.92 15.9867 145.48 16.36C146.04 16.7333 146.453 17.24 146.72 17.88L152.92 32.96C152.92 32.9867 152.933 33 152.96 33C152.987 33 153 32.9867 153 32.96L159.2 17.88C159.467 17.24 159.88 16.7333 160.44 16.36C161 15.9867 161.627 15.8 162.32 15.8H164.76C165.373 15.8 165.907 16.0267 166.36 16.48C166.813 16.9333 167.04 17.4667 167.04 18.08V42.72C167.04 43.3333 166.813 43.8667 166.36 44.32C165.907 44.7733 165.373 45 164.76 45H162.84C162.227 45 161.693 44.7733 161.24 44.32C160.813 43.8667 160.6 43.3333 160.6 42.72V27.16C160.6 27.1333 160.587 27.12 160.56 27.12C160.507 27.12 160.48 27.1333 160.48 27.16L156.64 36.24C156.373 36.88 155.947 37.3867 155.36 37.76C154.8 38.1333 154.173 38.32 153.48 38.32H152.44C151.747 38.32 151.107 38.1333 150.52 37.76C149.96 37.3867 149.547 36.88 149.28 36.24L145.44 27.16C145.44 27.1333 145.413 27.12 145.36 27.12C145.333 27.12 145.32 27.1333 145.32 27.16V42.72C145.32 43.3333 145.093 43.8667 144.64 44.32C144.213 44.7733 143.693 45 143.08 45H141.32ZM183.503 21.72L180.583 33.2C180.556 33.28 180.569 33.36 180.622 33.44C180.703 33.4933 180.783 33.52 180.863 33.52H186.223C186.303 33.52 186.369 33.4933 186.423 33.44C186.503 33.36 186.529 33.28 186.503 33.2L183.583 21.72C183.583 21.6933 183.569 21.68 183.543 21.68C183.516 21.68 183.503 21.6933 183.503 21.72ZM172.823 45C172.263 45 171.809 44.7733 171.463 44.32C171.143 43.8667 171.076 43.3733 171.263 42.84L179.343 17.96C179.556 17.32 179.929 16.8 180.463 16.4C181.023 16 181.636 15.8 182.303 15.8H184.943C185.636 15.8 186.263 16 186.823 16.4C187.383 16.8 187.756 17.32 187.943 17.96L195.983 42.84C196.169 43.3733 196.089 43.8667 195.743 44.32C195.423 44.7733 194.983 45 194.423 45H191.743C191.076 45 190.476 44.8 189.943 44.4C189.409 43.9733 189.063 43.44 188.903 42.8L187.943 39C187.916 38.7867 187.783 38.68 187.543 38.68H179.543C179.329 38.68 179.196 38.7867 179.143 39L178.183 42.8C178.023 43.44 177.676 43.9733 177.143 44.4C176.609 44.8 176.009 45 175.342 45H172.823ZM206.345 21.16V28.84C206.345 29.08 206.452 29.2 206.665 29.2H208.585C210.452 29.2 211.878 28.8133 212.865 28.04C213.852 27.24 214.345 26.1333 214.345 24.72C214.345 21.9467 212.518 20.56 208.865 20.56C208.038 20.56 207.318 20.6133 206.705 20.72C206.465 20.7733 206.345 20.92 206.345 21.16ZM201.945 45C201.332 45 200.798 44.7733 200.345 44.32C199.892 43.8667 199.665 43.3333 199.665 42.72V18.28C199.665 17.6133 199.878 17.04 200.305 16.56C200.758 16.08 201.305 15.8133 201.945 15.76C204.318 15.52 206.758 15.4 209.265 15.4C213.265 15.4 216.238 16.16 218.185 17.68C220.158 19.1733 221.145 21.3067 221.145 24.08C221.145 25.8667 220.625 27.48 219.585 28.92C218.545 30.3333 217.185 31.3467 215.505 31.96C215.478 31.96 215.465 31.9733 215.465 32C215.465 32.0533 215.492 32.08 215.545 32.08C216.852 32.8267 217.958 34.4 218.865 36.8L221.145 42.88C221.332 43.3867 221.265 43.8667 220.945 44.32C220.625 44.7733 220.198 45 219.665 45H217.225C216.532 45 215.905 44.8 215.345 44.4C214.785 44 214.398 43.48 214.185 42.84L212.185 37.08C211.812 35.96 211.358 35.2 210.825 34.8C210.292 34.4 209.465 34.2 208.345 34.2H206.665C206.452 34.2 206.345 34.32 206.345 34.56V42.72C206.345 43.3333 206.118 43.8667 205.665 44.32C205.212 44.7733 204.678 45 204.065 45H201.945ZM230.788 42.84L222.708 17.96C222.521 17.4267 222.588 16.9333 222.908 16.48C223.254 16.0267 223.708 15.8 224.268 15.8H226.948C227.614 15.8 228.214 16.0133 228.748 16.44C229.281 16.84 229.628 17.36 229.788 18L235.028 38.44C235.028 38.4667 235.041 38.48 235.068 38.48C235.094 38.48 235.108 38.4667 235.108 38.44L240.508 18C240.668 17.36 241.014 16.84 241.548 16.44C242.081 16.0133 242.681 15.8 243.348 15.8H245.868C246.428 15.8 246.868 16.0267 247.188 16.48C247.534 16.9333 247.614 17.4267 247.428 17.96L239.348 42.84C239.161 43.48 238.788 44 238.228 44.4C237.694 44.8 237.081 45 236.388 45H233.748C233.081 45 232.468 44.8 231.908 44.4C231.374 44 231.001 43.48 230.788 42.84ZM253.35 45C252.737 45 252.204 44.7733 251.75 44.32C251.324 43.8667 251.11 43.3333 251.11 42.72V18.08C251.11 17.4667 251.324 16.9333 251.75 16.48C252.204 16.0267 252.737 15.8 253.35 15.8H267.51C268.124 15.8 268.644 16.0267 269.07 16.48C269.524 16.9333 269.75 17.4667 269.75 18.08V19C269.75 19.6133 269.524 20.1467 269.07 20.6C268.644 21.0533 268.124 21.28 267.51 21.28H258.23C258.017 21.28 257.91 21.3867 257.91 21.6V26.88C257.91 27.12 258.017 27.24 258.23 27.24H266.71C267.324 27.24 267.844 27.4667 268.27 27.92C268.724 28.3733 268.95 28.9067 268.95 29.52V30.12C268.95 30.7333 268.724 31.2667 268.27 31.72C267.844 32.1733 267.324 32.4 266.71 32.4H258.23C258.017 32.4 257.91 32.5067 257.91 32.72V39.2C257.91 39.4133 258.017 39.52 258.23 39.52H267.51C268.124 39.52 268.644 39.7467 269.07 40.2C269.524 40.6533 269.75 41.1867 269.75 41.8V42.72C269.75 43.3333 269.524 43.8667 269.07 44.32C268.644 44.7733 268.124 45 267.51 45H253.35ZM277.726 45C277.113 45 276.58 44.7733 276.126 44.32C275.673 43.8667 275.446 43.3333 275.446 42.72V18.08C275.446 17.4667 275.673 16.9333 276.126 16.48C276.58 16.0267 277.113 15.8 277.726 15.8H280.206C280.82 15.8 281.34 16.0267 281.766 16.48C282.22 16.9333 282.446 17.4667 282.446 18.08V39.04C282.446 39.2533 282.566 39.36 282.806 39.36H292.526C293.14 39.36 293.673 39.5867 294.126 40.04C294.58 40.4933 294.806 41.0267 294.806 41.64V42.72C294.806 43.3333 294.58 43.8667 294.126 44.32C293.673 44.7733 293.14 45 292.526 45H277.726ZM321.94 21.72L319.02 33.2C318.993 33.28 319.007 33.36 319.06 33.44C319.14 33.4933 319.22 33.52 319.3 33.52H324.66C324.74 33.52 324.807 33.4933 324.86 33.44C324.94 33.36 324.967 33.28 324.94 33.2L322.02 21.72C322.02 21.6933 322.007 21.68 321.98 21.68C321.953 21.68 321.94 21.6933 321.94 21.72ZM311.26 45C310.7 45 310.247 44.7733 309.9 44.32C309.58 43.8667 309.513 43.3733 309.7 42.84L317.78 17.96C317.993 17.32 318.367 16.8 318.9 16.4C319.46 16 320.073 15.8 320.74 15.8H323.38C324.073 15.8 324.7 16 325.26 16.4C325.82 16.8 326.193 17.32 326.38 17.96L334.42 42.84C334.607 43.3733 334.527 43.8667 334.18 44.32C333.86 44.7733 333.42 45 332.86 45H330.18C329.513 45 328.913 44.8 328.38 44.4C327.847 43.9733 327.5 43.44 327.34 42.8L326.38 39C326.353 38.7867 326.22 38.68 325.98 38.68H317.98C317.767 38.68 317.633 38.7867 317.58 39L316.62 42.8C316.46 43.44 316.113 43.9733 315.58 44.4C315.047 44.8 314.447 45 313.78 45H311.26ZM340.942 45C340.329 45 339.796 44.7733 339.343 44.32C338.916 43.8667 338.703 43.3333 338.703 42.72V18.08C338.703 17.4667 338.916 16.9333 339.343 16.48C339.796 16.0267 340.329 15.8 340.942 15.8H343.903C344.516 15.8 345.036 16.0267 345.463 16.48C345.916 16.9333 346.143 17.4667 346.143 18.08V42.72C346.143 43.3333 345.916 43.8667 345.463 44.32C345.036 44.7733 344.516 45 343.903 45H340.942ZM359.509 21.16V28.84C359.509 29.08 359.616 29.2 359.829 29.2H361.749C363.616 29.2 365.042 28.8133 366.029 28.04C367.016 27.24 367.509 26.1333 367.509 24.72C367.509 21.9467 365.682 20.56 362.029 20.56C361.202 20.56 360.482 20.6133 359.869 20.72C359.629 20.7733 359.509 20.92 359.509 21.16ZM355.109 45C354.496 45 353.962 44.7733 353.509 44.32C353.056 43.8667 352.829 43.3333 352.829 42.72V18.28C352.829 17.6133 353.042 17.04 353.469 16.56C353.922 16.08 354.469 15.8133 355.109 15.76C357.482 15.52 359.922 15.4 362.429 15.4C366.429 15.4 369.402 16.16 371.349 17.68C373.322 19.1733 374.309 21.3067 374.309 24.08C374.309 25.8667 373.789 27.48 372.749 28.92C371.709 30.3333 370.349 31.3467 368.669 31.96C368.642 31.96 368.629 31.9733 368.629 32C368.629 32.0533 368.656 32.08 368.709 32.08C370.016 32.8267 371.122 34.4 372.029 36.8L374.309 42.88C374.496 43.3867 374.429 43.8667 374.109 44.32C373.789 44.7733 373.362 45 372.829 45H370.389C369.696 45 369.069 44.8 368.509 44.4C367.949 44 367.562 43.48 367.349 42.84L365.349 37.08C364.976 35.96 364.522 35.2 363.989 34.8C363.456 34.4 362.629 34.2 361.509 34.2H359.829C359.616 34.2 359.509 34.32 359.509 34.56V42.72C359.509 43.3333 359.282 43.8667 358.829 44.32C358.376 44.7733 357.842 45 357.229 45H355.109ZM390.812 45.4C386.439 45.4 382.999 44.1067 380.492 41.52C377.986 38.9333 376.732 35.2267 376.732 30.4C376.732 25.6533 377.946 21.9733 380.372 19.36C382.799 16.72 386.186 15.4 390.532 15.4C392.612 15.4 394.426 15.5467 395.972 15.84C396.612 15.9467 397.132 16.2667 397.532 16.8C397.932 17.3333 398.132 17.9333 398.132 18.6V19.88C398.132 20.44 397.906 20.88 397.452 21.2C396.999 21.52 396.506 21.6133 395.972 21.48C394.452 21.08 392.906 20.88 391.332 20.88C388.932 20.88 387.052 21.6933 385.692 23.32C384.359 24.9467 383.692 27.3067 383.692 30.4C383.692 33.44 384.412 35.8 385.852 37.48C387.292 39.16 389.212 40 391.612 40C393.212 40 394.772 39.8 396.292 39.4C396.826 39.2667 397.319 39.36 397.772 39.68C398.252 40 398.492 40.44 398.492 41V42.2C398.492 42.8667 398.279 43.4667 397.852 44C397.452 44.5333 396.932 44.8533 396.292 44.96C394.719 45.2533 392.892 45.4 390.812 45.4ZM422.601 30.4C422.601 24.1333 420.361 21 415.881 21C411.401 21 409.161 24.1333 409.161 30.4C409.161 36.6667 411.401 39.8 415.881 39.8C420.361 39.8 422.601 36.6667 422.601 30.4ZM425.881 41.44C423.428 44.08 420.094 45.4 415.881 45.4C411.668 45.4 408.334 44.08 405.881 41.44C403.428 38.7733 402.201 35.0933 402.201 30.4C402.201 25.7067 403.428 22.04 405.881 19.4C408.334 16.7333 411.668 15.4 415.881 15.4C420.094 15.4 423.428 16.7333 425.881 19.4C428.334 22.04 429.561 25.7067 429.561 30.4C429.561 35.0933 428.334 38.7733 425.881 41.44ZM436.125 45C435.511 45 434.978 44.7733 434.525 44.32C434.071 43.8667 433.845 43.3333 433.845 42.72V18.08C433.845 17.4667 434.071 16.9333 434.525 16.48C434.978 16.0267 435.511 15.8 436.125 15.8H438.085C439.605 15.8 440.711 16.4667 441.405 17.8L449.805 33.68C449.805 33.7067 449.818 33.72 449.845 33.72C449.871 33.72 449.885 33.7067 449.885 33.68V18.08C449.885 17.4667 450.111 16.9333 450.565 16.48C451.018 16.0267 451.551 15.8 452.165 15.8H454.125C454.738 15.8 455.271 16.0267 455.725 16.48C456.178 16.9333 456.405 17.4667 456.405 18.08V42.72C456.405 43.3333 456.178 43.8667 455.725 44.32C455.271 44.7733 454.738 45 454.125 45H452.165C450.645 45 449.538 44.3333 448.845 43L440.445 27.12C440.445 27.0933 440.431 27.08 440.405 27.08C440.378 27.08 440.365 27.0933 440.365 27.12V42.72C440.365 43.3333 440.138 43.8667 439.685 44.32C439.231 44.7733 438.698 45 438.085 45H436.125Z" fill="black"/>
<path d="M144.28 74.68C142.74 75.7 141.65 76.61 141.01 77.41C140.37 78.21 140.05 79.01 140.05 79.81C140.05 80.95 140.45 81.83 141.25 82.45C142.07 83.07 143.24 83.38 144.76 83.38C145.96 83.38 147.01 83.24 147.91 82.96C148.83 82.66 149.78 82.15 150.76 81.43C150.9 81.33 150.91 81.22 150.79 81.1L144.67 74.71C144.55 74.59 144.42 74.58 144.28 74.68ZM142.12 67.21C142.12 67.85 142.28 68.46 142.6 69.04C142.92 69.6 143.65 70.48 144.79 71.68C144.93 71.82 145.07 71.83 145.21 71.71C146.73 70.67 147.73 69.85 148.21 69.25C148.69 68.63 148.93 67.95 148.93 67.21C148.93 66.41 148.64 65.79 148.06 65.35C147.48 64.91 146.63 64.69 145.51 64.69C144.45 64.69 143.62 64.92 143.02 65.38C142.42 65.84 142.12 66.45 142.12 67.21ZM144.67 85.3C142.37 85.3 140.62 84.84 139.42 83.92C138.24 82.98 137.65 81.64 137.65 79.9C137.65 78.8 138.05 77.73 138.85 76.69C139.65 75.63 141.01 74.46 142.93 73.18C143.07 73.12 143.07 73.02 142.93 72.88L142.75 72.67C141.65 71.53 140.87 70.54 140.41 69.7C139.97 68.86 139.75 68.03 139.75 67.21C139.75 65.89 140.26 64.83 141.28 64.03C142.32 63.21 143.73 62.8 145.51 62.8C147.33 62.8 148.72 63.18 149.68 63.94C150.66 64.7 151.15 65.75 151.15 67.09C151.15 68.17 150.81 69.16 150.13 70.06C149.47 70.96 148.28 72 146.56 73.18C146.42 73.28 146.41 73.39 146.53 73.51L151.54 78.82C151.58 78.86 151.62 78.87 151.66 78.85C151.7 78.83 151.72 78.8 151.72 78.76V73.6C151.72 73.28 151.82 73.01 152.02 72.79C152.24 72.57 152.51 72.46 152.83 72.46C153.15 72.46 153.42 72.57 153.64 72.79C153.86 73.01 153.97 73.28 153.97 73.6V81.13C153.97 81.33 154.02 81.48 154.12 81.58L156.37 83.95C156.55 84.13 156.58 84.35 156.46 84.61C156.36 84.87 156.18 85 155.92 85C154.96 85 154.15 84.65 153.49 83.95L152.65 83.05C152.55 82.91 152.42 82.9 152.26 83.02C149.84 84.54 147.31 85.3 144.67 85.3ZM169.03 85C168.57 85 168.17 84.83 167.83 84.49C167.49 84.15 167.32 83.75 167.32 83.29V64.81C167.32 64.35 167.49 63.95 167.83 63.61C168.17 63.27 168.57 63.1 169.03 63.1H179.11C179.39 63.1 179.63 63.2 179.83 63.4C180.03 63.6 180.13 63.83 180.13 64.09C180.13 64.35 180.03 64.59 179.83 64.81C179.63 65.01 179.39 65.11 179.11 65.11H169.99C169.81 65.11 169.72 65.19 169.72 65.35V72.01C169.72 72.17 169.81 72.25 169.99 72.25H178.57C178.85 72.25 179.08 72.35 179.26 72.55C179.44 72.73 179.53 72.95 179.53 73.21C179.53 73.47 179.44 73.7 179.26 73.9C179.08 74.08 178.85 74.17 178.57 74.17H169.99C169.81 74.17 169.72 74.26 169.72 74.44V82.75C169.72 82.91 169.81 82.99 169.99 82.99H179.11C179.39 82.99 179.63 83.1 179.83 83.32C180.03 83.52 180.13 83.75 180.13 84.01C180.13 84.27 180.03 84.5 179.83 84.7C179.63 84.9 179.39 85 179.11 85H169.03ZM186.637 85C186.177 85 185.777 84.83 185.437 84.49C185.097 84.15 184.927 83.75 184.927 83.29V64.36C184.927 64.02 185.047 63.73 185.287 63.49C185.547 63.23 185.847 63.1 186.187 63.1C186.527 63.1 186.817 63.23 187.057 63.49C187.317 63.73 187.447 64.02 187.447 64.36V82.69C187.447 82.87 187.527 82.96 187.687 82.96H197.017C197.297 82.96 197.537 83.06 197.737 83.26C197.937 83.46 198.037 83.7 198.037 83.98C198.037 84.26 197.937 84.5 197.737 84.7C197.537 84.9 197.297 85 197.017 85H186.637ZM204.098 85C203.638 85 203.238 84.83 202.898 84.49C202.558 84.15 202.388 83.75 202.388 83.29V64.81C202.388 64.35 202.558 63.95 202.898 63.61C203.238 63.27 203.638 63.1 204.098 63.1H214.178C214.458 63.1 214.698 63.2 214.898 63.4C215.098 63.6 215.198 63.83 215.198 64.09C215.198 64.35 215.098 64.59 214.898 64.81C214.698 65.01 214.458 65.11 214.178 65.11H205.058C204.878 65.11 204.788 65.19 204.788 65.35V72.01C204.788 72.17 204.878 72.25 205.058 72.25H213.638C213.918 72.25 214.148 72.35 214.328 72.55C214.508 72.73 214.598 72.95 214.598 73.21C214.598 73.47 214.508 73.7 214.328 73.9C214.148 74.08 213.918 74.17 213.638 74.17H205.058C204.878 74.17 204.788 74.26 204.788 74.44V82.75C204.788 82.91 204.878 82.99 205.058 82.99H214.178C214.458 82.99 214.698 83.1 214.898 83.32C215.098 83.52 215.198 83.75 215.198 84.01C215.198 84.27 215.098 84.5 214.898 84.7C214.698 84.9 214.458 85 214.178 85H204.098ZM227.892 85.3C225.012 85.3 222.702 84.32 220.962 82.36C219.222 80.38 218.352 77.61 218.352 74.05C218.352 70.51 219.182 67.75 220.842 65.77C222.522 63.79 224.842 62.8 227.802 62.8C229.362 62.8 230.752 62.95 231.972 63.25C232.272 63.33 232.512 63.5 232.692 63.76C232.892 64.02 232.992 64.31 232.992 64.63C232.992 64.89 232.882 65.1 232.662 65.26C232.462 65.4 232.232 65.43 231.972 65.35C230.792 64.99 229.472 64.81 228.012 64.81C225.752 64.81 223.982 65.62 222.702 67.24C221.422 68.86 220.782 71.13 220.782 74.05C220.782 76.95 221.442 79.22 222.762 80.86C224.102 82.48 225.882 83.29 228.102 83.29C229.582 83.29 230.922 83.11 232.122 82.75C232.382 82.67 232.612 82.71 232.812 82.87C233.032 83.01 233.142 83.21 233.142 83.47C233.142 83.79 233.042 84.08 232.842 84.34C232.662 84.58 232.422 84.74 232.122 84.82C230.782 85.14 229.372 85.3 227.892 85.3ZM237.785 65.14C237.505 65.14 237.265 65.04 237.065 64.84C236.865 64.64 236.765 64.4 236.765 64.12C236.765 63.84 236.865 63.6 237.065 63.4C237.265 63.2 237.505 63.1 237.785 63.1H251.165C251.445 63.1 251.685 63.2 251.885 63.4C252.085 63.6 252.185 63.84 252.185 64.12C252.185 64.4 252.085 64.64 251.885 64.84C251.685 65.04 251.445 65.14 251.165 65.14H245.945C245.765 65.14 245.675 65.23 245.675 65.41V83.8C245.675 84.12 245.555 84.4 245.315 84.64C245.095 84.88 244.815 85 244.475 85C244.135 85 243.845 84.88 243.605 84.64C243.385 84.4 243.275 84.12 243.275 83.8V65.41C243.275 65.23 243.185 65.14 243.005 65.14H237.785ZM258.929 65.29V73.27C258.929 73.45 259.019 73.54 259.199 73.54H261.329C263.709 73.54 265.459 73.16 266.579 72.4C267.699 71.62 268.259 70.47 268.259 68.95C268.259 66.15 266.149 64.75 261.929 64.75C261.029 64.75 260.119 64.83 259.199 64.99C259.019 65.03 258.929 65.13 258.929 65.29ZM258.569 84.64C258.349 84.88 258.069 85 257.729 85C257.389 85 257.099 84.88 256.859 84.64C256.639 84.4 256.529 84.12 256.529 83.8V64.96C256.529 64.46 256.689 64.03 257.009 63.67C257.329 63.29 257.729 63.07 258.209 63.01C259.389 62.87 260.699 62.8 262.139 62.8C264.939 62.8 267.049 63.32 268.469 64.36C269.909 65.38 270.629 66.84 270.629 68.74C270.629 70.26 270.219 71.53 269.399 72.55C268.599 73.55 267.449 74.24 265.949 74.62C265.929 74.62 265.919 74.64 265.919 74.68C265.919 74.7 265.929 74.71 265.949 74.71C266.809 75.21 267.689 76.51 268.589 78.61L270.749 83.86C270.869 84.12 270.839 84.38 270.659 84.64C270.499 84.88 270.269 85 269.969 85C269.589 85 269.239 84.89 268.919 84.67C268.619 84.45 268.399 84.17 268.259 83.83L266.159 78.67C265.559 77.23 264.989 76.34 264.449 76C263.929 75.64 262.889 75.46 261.329 75.46H259.199C259.019 75.46 258.929 75.54 258.929 75.7V83.8C258.929 84.12 258.809 84.4 258.569 84.64ZM277.812 84.64C277.572 84.88 277.272 85 276.912 85C276.552 85 276.242 84.88 275.982 84.64C275.742 84.38 275.622 84.07 275.622 83.71V64.39C275.622 64.03 275.742 63.73 275.982 63.49C276.242 63.23 276.552 63.1 276.912 63.1C277.272 63.1 277.572 63.23 277.812 63.49C278.072 63.73 278.202 64.03 278.202 64.39V83.71C278.202 84.07 278.072 84.38 277.812 84.64ZM292.404 85.3C289.524 85.3 287.214 84.32 285.474 82.36C283.734 80.38 282.864 77.61 282.864 74.05C282.864 70.51 283.694 67.75 285.354 65.77C287.034 63.79 289.354 62.8 292.314 62.8C293.874 62.8 295.264 62.95 296.484 63.25C296.784 63.33 297.024 63.5 297.204 63.76C297.404 64.02 297.504 64.31 297.504 64.63C297.504 64.89 297.394 65.1 297.174 65.26C296.974 65.4 296.744 65.43 296.484 65.35C295.304 64.99 293.984 64.81 292.524 64.81C290.264 64.81 288.494 65.62 287.214 67.24C285.934 68.86 285.294 71.13 285.294 74.05C285.294 76.95 285.954 79.22 287.274 80.86C288.614 82.48 290.394 83.29 292.614 83.29C294.094 83.29 295.434 83.11 296.634 82.75C296.894 82.67 297.124 82.71 297.324 82.87C297.544 83.01 297.654 83.21 297.654 83.47C297.654 83.79 297.554 84.08 297.354 84.34C297.174 84.58 296.934 84.74 296.634 84.82C295.294 85.14 293.884 85.3 292.404 85.3Z" fill="black"/>
</svg>
